<svg xmlns="http://www.w3.org/2000/svg" xmlns:xlink="http://www.w3.org/1999/xlink" width="120" zoomAndPan="magnify" viewBox="0 0 90 30.000001" height="40" preserveAspectRatio="xMidYMid meet" version="1.0"><defs><g/></defs><g fill="#545454" fill-opacity="1"><g transform="translate(10.093135, 17.651789)"><g><path d="M 3.488281 -3.015625 C 3.691406 -3.507812 3.691406 -3.507812 5.851562 -3.507812 C 8.035156 -3.507812 8.035156 -3.507812 8.269531 -2.925781 L 8.433594 -2.507812 C 8.996094 -1.074219 7.742188 -1.34375 7.742188 -0.582031 C 7.742188 -0.144531 8.035156 0 8.6875 0 L 12.015625 0 C 12.757812 0 13.015625 -0.144531 13.015625 -0.582031 C 13.015625 -1.328125 12.285156 -1.019531 11.667969 -2.507812 L 7.832031 -12.195312 C 7.671875 -12.558594 7.433594 -12.722656 7.050781 -12.722656 L 4.796875 -12.722656 C 4.433594 -12.722656 4.179688 -12.558594 4.179688 -12.179688 C 4.179688 -11.433594 5.269531 -11.488281 4.78125 -10.25 L 1.597656 -2.398438 C 1.089844 -1.125 0.0546875 -1.253906 0.0546875 -0.546875 C 0.0546875 -0.128906 0.453125 -0.0195312 1.089844 -0.0195312 L 2.800781 -0.0195312 C 3.308594 -0.0195312 3.707031 -0.109375 3.707031 -0.546875 C 3.707031 -1.253906 2.671875 -1.035156 3.234375 -2.398438 Z M 5.871094 -4.835938 C 4.21875 -4.835938 4.21875 -4.835938 4.453125 -5.433594 L 5.890625 -9.035156 L 7.324219 -5.324219 C 7.507812 -4.835938 7.507812 -4.835938 5.871094 -4.835938 Z M 5.871094 -4.835938 "/></g></g></g><g fill="#545454" fill-opacity="1"><g transform="translate(23.015448, 17.651789)"><g><path d="M 14.59375 -10.195312 C 14.539062 -11.523438 15.6875 -11.289062 15.6875 -12.140625 C 15.6875 -12.578125 15.394531 -12.722656 14.722656 -12.722656 L 12.414062 -12.722656 C 12.03125 -12.722656 11.796875 -12.558594 11.613281 -12.195312 L 8.214844 -4.945312 L 5.070312 -12.214844 C 4.90625 -12.558594 4.652344 -12.722656 4.269531 -12.722656 L 1.835938 -12.722656 C 1.164062 -12.722656 0.890625 -12.578125 0.890625 -12.140625 C 0.890625 -11.289062 2.035156 -11.503906 1.980469 -10.195312 L 1.597656 -2.328125 C 1.546875 -1.179688 0.507812 -1.144531 0.507812 -0.546875 C 0.507812 -0.144531 0.726562 -0.0195312 1.398438 -0.0195312 L 3.199219 -0.0195312 C 3.761719 -0.0195312 4.035156 -0.109375 4.035156 -0.527344 C 4.035156 -1.179688 3.089844 -1.179688 3.125 -2.328125 L 3.328125 -8.980469 L 6.671875 -1.074219 C 6.78125 -0.800781 7.015625 -0.636719 7.433594 -0.726562 C 7.851562 -0.816406 8.015625 -0.964844 8.179688 -1.308594 L 11.796875 -9.089844 L 11.90625 -2.871094 C 11.921875 -1.234375 10.851562 -1.597656 10.851562 -0.582031 C 10.851562 -0.144531 11.140625 0 11.90625 0 L 15.105469 0 C 15.902344 0 16.160156 -0.144531 16.160156 -0.582031 C 16.160156 -1.691406 14.921875 -1.144531 14.851562 -2.871094 Z M 14.59375 -10.195312 "/></g></g></g><g fill="#545454" fill-opacity="1"><g transform="translate(39.227419, 17.651789)"><g><path d="M 10.398438 -4.109375 C 10.085938 -4.179688 9.832031 -4.035156 9.523438 -3.417969 C 8.871094 -2.089844 8.46875 -1.328125 7.359375 -1.328125 L 6.234375 -1.308594 C 4.945312 -1.308594 4.6875 -1.5625 4.6875 -2.144531 L 4.6875 -5.214844 C 4.6875 -5.960938 5.089844 -6.105469 5.871094 -6.105469 L 6.234375 -6.105469 C 7.414062 -6.105469 7.089844 -4.671875 7.871094 -4.671875 C 8.289062 -4.671875 8.453125 -4.960938 8.453125 -5.5625 L 8.453125 -7.90625 C 8.453125 -8.578125 8.289062 -8.832031 7.871094 -8.832031 C 7.089844 -8.832031 7.414062 -7.414062 6.234375 -7.414062 L 5.871094 -7.414062 C 5.089844 -7.414062 4.6875 -7.578125 4.6875 -8.304688 L 4.6875 -10.578125 C 4.6875 -11.160156 4.945312 -11.414062 6.089844 -11.414062 L 6.871094 -11.414062 C 8.015625 -11.414062 8.777344 -10.832031 9.542969 -9.6875 C 9.851562 -9.214844 10.105469 -9.070312 10.46875 -9.195312 C 10.816406 -9.304688 10.871094 -9.652344 10.761719 -10.195312 C 10.613281 -10.941406 10.414062 -11.558594 10.179688 -12.050781 C 10.015625 -12.449219 9.632812 -12.722656 8.578125 -12.722656 L 1.507812 -12.722656 C 0.726562 -12.722656 0.4375 -12.578125 0.4375 -12.140625 C 0.4375 -11.289062 1.453125 -11.503906 1.636719 -10.25 C 1.671875 -9.996094 1.691406 -9.777344 1.691406 -9.34375 L 1.691406 -3.378906 C 1.691406 -2.945312 1.671875 -2.726562 1.636719 -2.472656 C 1.453125 -1.234375 0.4375 -1.4375 0.4375 -0.582031 C 0.4375 -0.144531 0.726562 0 1.507812 0 L 9.015625 0 C 10.085938 0 10.398438 -0.234375 10.558594 -0.816406 C 10.707031 -1.34375 10.816406 -2.089844 10.851562 -3.164062 C 10.871094 -3.726562 10.832031 -4 10.398438 -4.109375 Z M 10.398438 -4.109375 "/></g></g></g><g fill="#545454" fill-opacity="1"><g transform="translate(50.332238, 17.651789)"><g><path d="M 9.722656 -4.109375 C 9.398438 -4.179688 9.140625 -4.035156 8.832031 -3.417969 C 8.199219 -2.089844 7.777344 -1.328125 6.671875 -1.328125 L 6.015625 -1.308594 C 4.945312 -1.308594 4.6875 -1.5625 4.6875 -2.125 L 4.6875 -9.488281 C 4.6875 -11.707031 5.945312 -11.160156 5.945312 -12.140625 C 5.945312 -12.578125 5.652344 -12.722656 4.871094 -12.722656 L 1.546875 -12.722656 C 0.726562 -12.722656 0.472656 -12.578125 0.472656 -12.140625 C 0.472656 -11.160156 1.691406 -11.707031 1.691406 -9.488281 L 1.691406 -3.378906 C 1.691406 -2.945312 1.671875 -2.726562 1.636719 -2.472656 C 1.453125 -1.234375 0.4375 -1.4375 0.4375 -0.582031 C 0.4375 -0.144531 0.726562 0 1.507812 0 L 8.324219 0 C 9.414062 0 9.722656 -0.234375 9.871094 -0.816406 C 10.015625 -1.34375 10.125 -2.089844 10.160156 -3.164062 C 10.179688 -3.726562 10.140625 -4 9.722656 -4.109375 Z M 9.722656 -4.109375 "/></g></g></g><g fill="#545454" fill-opacity="1"><g transform="translate(60.601015, 17.651789)"><g><path d="M 1.691406 -3.234375 C 1.691406 -1.019531 0.4375 -1.5625 0.4375 -0.582031 C 0.4375 -0.144531 0.726562 0 1.507812 0 L 4.835938 0 C 5.652344 0 5.90625 -0.144531 5.90625 -0.582031 C 5.90625 -1.5625 4.6875 -1.019531 4.6875 -3.234375 L 4.6875 -9.488281 C 4.6875 -11.707031 5.945312 -11.160156 5.945312 -12.140625 C 5.945312 -12.578125 5.652344 -12.722656 4.871094 -12.722656 L 1.546875 -12.722656 C 0.726562 -12.722656 0.472656 -12.578125 0.472656 -12.140625 C 0.472656 -11.160156 1.691406 -11.707031 1.691406 -9.488281 Z M 1.691406 -3.234375 "/></g></g></g><g fill="#545454" fill-opacity="1"><g transform="translate(66.616858, 17.651789)"><g><path d="M 3.488281 -3.015625 C 3.691406 -3.507812 3.691406 -3.507812 5.851562 -3.507812 C 8.035156 -3.507812 8.035156 -3.507812 8.269531 -2.925781 L 8.433594 -2.507812 C 8.996094 -1.074219 7.742188 -1.34375 7.742188 -0.582031 C 7.742188 -0.144531 8.035156 0 8.6875 0 L 12.015625 0 C 12.757812 0 13.015625 -0.144531 13.015625 -0.582031 C 13.015625 -1.328125 12.285156 -1.019531 11.667969 -2.507812 L 7.832031 -12.195312 C 7.671875 -12.558594 7.433594 -12.722656 7.050781 -12.722656 L 4.796875 -12.722656 C 4.433594 -12.722656 4.179688 -12.558594 4.179688 -12.179688 C 4.179688 -11.433594 5.269531 -11.488281 4.78125 -10.25 L 1.597656 -2.398438 C 1.089844 -1.125 0.0546875 -1.253906 0.0546875 -0.546875 C 0.0546875 -0.128906 0.453125 -0.0195312 1.089844 -0.0195312 L 2.800781 -0.0195312 C 3.308594 -0.0195312 3.707031 -0.109375 3.707031 -0.546875 C 3.707031 -1.253906 2.671875 -1.035156 3.234375 -2.398438 Z M 5.871094 -4.835938 C 4.21875 -4.835938 4.21875 -4.835938 4.453125 -5.433594 L 5.890625 -9.035156 L 7.324219 -5.324219 C 7.507812 -4.835938 7.507812 -4.835938 5.871094 -4.835938 Z M 5.871094 -4.835938 "/></g></g></g><g fill="#545454" fill-opacity="1"><g transform="translate(28.971473, 23.413953)"><g><path d="M 1.203125 0.03125 C 0.835938 0.03125 0.566406 -0.0507812 0.390625 -0.21875 C 0.210938 -0.394531 0.125 -0.660156 0.125 -1.015625 C 0.125 -1.722656 0.484375 -2.078125 1.203125 -2.078125 C 1.484375 -2.078125 1.707031 -2.007812 1.875 -1.875 C 2.050781 -1.75 2.148438 -1.5625 2.171875 -1.3125 L 1.65625 -1.3125 C 1.644531 -1.425781 1.597656 -1.519531 1.515625 -1.59375 C 1.441406 -1.675781 1.332031 -1.71875 1.1875 -1.71875 C 1.09375 -1.71875 1.015625 -1.703125 0.953125 -1.671875 C 0.890625 -1.640625 0.835938 -1.59375 0.796875 -1.53125 C 0.753906 -1.476562 0.722656 -1.414062 0.703125 -1.34375 C 0.691406 -1.28125 0.6875 -1.207031 0.6875 -1.125 L 0.6875 -0.921875 C 0.6875 -0.835938 0.691406 -0.757812 0.703125 -0.6875 C 0.722656 -0.613281 0.753906 -0.546875 0.796875 -0.484375 C 0.835938 -0.429688 0.890625 -0.390625 0.953125 -0.359375 C 1.015625 -0.328125 1.09375 -0.3125 1.1875 -0.3125 C 1.332031 -0.3125 1.445312 -0.347656 1.53125 -0.421875 C 1.613281 -0.492188 1.664062 -0.59375 1.6875 -0.71875 L 2.171875 -0.71875 C 2.148438 -0.46875 2.054688 -0.28125 1.890625 -0.15625 C 1.734375 -0.03125 1.503906 0.03125 1.203125 0.03125 Z M 1.203125 0.03125 "/></g></g></g><g fill="#545454" fill-opacity="1"><g transform="translate(33.461416, 23.413953)"><g><path d="M 0.21875 0 L 0.21875 -2.03125 L 1.984375 -2.03125 L 1.984375 -1.6875 L 0.765625 -1.6875 L 0.765625 -1.203125 L 1.796875 -1.203125 L 1.796875 -0.859375 L 0.765625 -0.859375 L 0.765625 -0.359375 L 2 -0.359375 L 2 0 Z M 0.21875 0 "/></g></g></g><g fill="#545454" fill-opacity="1"><g transform="translate(37.787157, 23.413953)"><g><path d="M 1.546875 0 L 1.15625 -0.8125 L 0.75 -0.8125 L 0.75 0 L 0.21875 0 L 0.21875 -2.03125 L 1.484375 -2.03125 C 1.597656 -2.03125 1.695312 -2.015625 1.78125 -1.984375 C 1.863281 -1.953125 1.929688 -1.90625 1.984375 -1.84375 C 2.035156 -1.789062 2.078125 -1.726562 2.109375 -1.65625 C 2.140625 -1.59375 2.15625 -1.519531 2.15625 -1.4375 C 2.15625 -1.332031 2.117188 -1.226562 2.046875 -1.125 C 1.972656 -1.03125 1.851562 -0.953125 1.6875 -0.890625 C 1.757812 -0.734375 1.832031 -0.582031 1.90625 -0.4375 C 1.988281 -0.289062 2.070312 -0.144531 2.15625 0 Z M 0.75 -1.703125 L 0.75 -1.125 L 1.3125 -1.125 C 1.382812 -1.125 1.445312 -1.148438 1.5 -1.203125 C 1.5625 -1.265625 1.59375 -1.335938 1.59375 -1.421875 C 1.59375 -1.503906 1.5625 -1.570312 1.5 -1.625 C 1.445312 -1.675781 1.382812 -1.703125 1.3125 -1.703125 Z M 0.75 -1.703125 "/></g></g></g><g fill="#545454" fill-opacity="1"><g transform="translate(42.2771, 23.413953)"><g><path d="M 1.6875 0 L 1.59375 -0.375 L 0.6875 -0.375 L 0.59375 0 L 0.0625 0 L 0.796875 -2.03125 L 1.5 -2.03125 L 2.234375 0 Z M 1.21875 -1.59375 L 1.0625 -1.59375 L 0.78125 -0.75 L 1.5 -0.75 Z M 1.21875 -1.59375 "/></g></g></g><g fill="#545454" fill-opacity="1"><g transform="translate(46.767043, 23.413953)"><g><path d="M 2.078125 0 L 2.078125 -0.703125 C 2.078125 -0.785156 2.078125 -0.851562 2.078125 -0.90625 C 2.078125 -0.957031 2.082031 -1.007812 2.09375 -1.0625 C 2.101562 -1.113281 2.113281 -1.171875 2.125 -1.234375 C 2.132812 -1.304688 2.148438 -1.394531 2.171875 -1.5 L 2.0625 -1.5 C 1.976562 -1.25 1.894531 -1 1.8125 -0.75 C 1.738281 -0.5 1.660156 -0.25 1.578125 0 L 1.15625 0 L 0.703125 -1.5 L 0.5625 -1.5 C 0.582031 -1.382812 0.597656 -1.296875 0.609375 -1.234375 C 0.628906 -1.171875 0.640625 -1.109375 0.640625 -1.046875 C 0.648438 -0.992188 0.65625 -0.941406 0.65625 -0.890625 C 0.65625 -0.847656 0.65625 -0.785156 0.65625 -0.703125 L 0.65625 0 L 0.171875 0 L 0.171875 -2.03125 L 1.015625 -2.03125 L 1.40625 -0.734375 C 1.445312 -0.867188 1.484375 -0.992188 1.515625 -1.109375 C 1.554688 -1.222656 1.59375 -1.332031 1.625 -1.4375 C 1.664062 -1.539062 1.695312 -1.640625 1.71875 -1.734375 C 1.75 -1.835938 1.78125 -1.9375 1.8125 -2.03125 L 2.625 -2.03125 L 2.625 0 Z M 2.078125 0 "/></g></g></g><g fill="#545454" fill-opacity="1"><g transform="translate(51.749586, 23.413953)"><g><path d="M 0.265625 0 L 0.265625 -2.03125 L 0.859375 -2.03125 L 0.859375 0 Z M 0.265625 0 "/></g></g></g><g fill="#545454" fill-opacity="1"><g transform="translate(55.053638, 23.413953)"><g><path d="M 1.203125 0.03125 C 0.835938 0.03125 0.566406 -0.0507812 0.390625 -0.21875 C 0.210938 -0.394531 0.125 -0.660156 0.125 -1.015625 C 0.125 -1.722656 0.484375 -2.078125 1.203125 -2.078125 C 1.484375 -2.078125 1.707031 -2.007812 1.875 -1.875 C 2.050781 -1.75 2.148438 -1.5625 2.171875 -1.3125 L 1.65625 -1.3125 C 1.644531 -1.425781 1.597656 -1.519531 1.515625 -1.59375 C 1.441406 -1.675781 1.332031 -1.71875 1.1875 -1.71875 C 1.09375 -1.71875 1.015625 -1.703125 0.953125 -1.671875 C 0.890625 -1.640625 0.835938 -1.59375 0.796875 -1.53125 C 0.753906 -1.476562 0.722656 -1.414062 0.703125 -1.34375 C 0.691406 -1.28125 0.6875 -1.207031 0.6875 -1.125 L 0.6875 -0.921875 C 0.6875 -0.835938 0.691406 -0.757812 0.703125 -0.6875 C 0.722656 -0.613281 0.753906 -0.546875 0.796875 -0.484375 C 0.835938 -0.429688 0.890625 -0.390625 0.953125 -0.359375 C 1.015625 -0.328125 1.09375 -0.3125 1.1875 -0.3125 C 1.332031 -0.3125 1.445312 -0.347656 1.53125 -0.421875 C 1.613281 -0.492188 1.664062 -0.59375 1.6875 -0.71875 L 2.171875 -0.71875 C 2.148438 -0.46875 2.054688 -0.28125 1.890625 -0.15625 C 1.734375 -0.03125 1.503906 0.03125 1.203125 0.03125 Z M 1.203125 0.03125 "/></g></g></g><g fill="#545454" fill-opacity="1"><g transform="translate(59.543582, 23.413953)"><g><path d="M 1.46875 -1.53125 C 1.445312 -1.601562 1.40625 -1.660156 1.34375 -1.703125 C 1.28125 -1.742188 1.195312 -1.765625 1.09375 -1.765625 C 1.050781 -1.765625 1.003906 -1.757812 0.953125 -1.75 C 0.910156 -1.738281 0.867188 -1.722656 0.828125 -1.703125 C 0.796875 -1.679688 0.769531 -1.65625 0.75 -1.625 C 0.726562 -1.601562 0.71875 -1.570312 0.71875 -1.53125 C 0.71875 -1.457031 0.75 -1.398438 0.8125 -1.359375 C 0.875 -1.316406 0.953125 -1.28125 1.046875 -1.25 C 1.148438 -1.226562 1.257812 -1.207031 1.375 -1.1875 C 1.488281 -1.164062 1.59375 -1.132812 1.6875 -1.09375 C 1.789062 -1.050781 1.875 -0.992188 1.9375 -0.921875 C 2 -0.859375 2.03125 -0.765625 2.03125 -0.640625 C 2.03125 -0.523438 2.007812 -0.425781 1.96875 -0.34375 C 1.925781 -0.257812 1.863281 -0.1875 1.78125 -0.125 C 1.707031 -0.0703125 1.613281 -0.03125 1.5 0 C 1.394531 0.0195312 1.273438 0.03125 1.140625 0.03125 C 0.992188 0.03125 0.859375 0.0195312 0.734375 0 C 0.617188 -0.0195312 0.515625 -0.0507812 0.421875 -0.09375 C 0.335938 -0.132812 0.269531 -0.191406 0.21875 -0.265625 C 0.164062 -0.347656 0.132812 -0.453125 0.125 -0.578125 L 0.625 -0.578125 C 0.632812 -0.515625 0.65625 -0.460938 0.6875 -0.421875 C 0.71875 -0.390625 0.75 -0.363281 0.78125 -0.34375 C 0.820312 -0.320312 0.867188 -0.304688 0.921875 -0.296875 C 0.972656 -0.296875 1.023438 -0.296875 1.078125 -0.296875 C 1.109375 -0.296875 1.144531 -0.296875 1.1875 -0.296875 C 1.238281 -0.304688 1.285156 -0.320312 1.328125 -0.34375 C 1.367188 -0.363281 1.40625 -0.382812 1.4375 -0.40625 C 1.46875 -0.4375 1.484375 -0.476562 1.484375 -0.53125 C 1.484375 -0.601562 1.445312 -0.65625 1.375 -0.6875 C 1.3125 -0.726562 1.234375 -0.757812 1.140625 -0.78125 C 1.046875 -0.8125 0.941406 -0.835938 0.828125 -0.859375 C 0.710938 -0.890625 0.601562 -0.925781 0.5 -0.96875 C 0.40625 -1.007812 0.328125 -1.066406 0.265625 -1.140625 C 0.203125 -1.222656 0.171875 -1.328125 0.171875 -1.453125 C 0.171875 -1.554688 0.191406 -1.644531 0.234375 -1.71875 C 0.273438 -1.800781 0.335938 -1.867188 0.421875 -1.921875 C 0.503906 -1.972656 0.597656 -2.007812 0.703125 -2.03125 C 0.816406 -2.0625 0.941406 -2.078125 1.078125 -2.078125 C 1.203125 -2.078125 1.316406 -2.0625 1.421875 -2.03125 C 1.523438 -2.007812 1.613281 -1.976562 1.6875 -1.9375 C 1.769531 -1.894531 1.832031 -1.835938 1.875 -1.765625 C 1.925781 -1.691406 1.957031 -1.613281 1.96875 -1.53125 Z M 1.46875 -1.53125 "/></g></g></g></svg>