<?xml version="1.0" encoding="iso-8859-1"?>
<!-- Uploaded to: SVG Repo, www.svgrepo.com, Generator: SVG Repo Mixer Tools -->
<svg version="1.1" id="Layer_1" xmlns="http://www.w3.org/2000/svg" xmlns:xlink="http://www.w3.org/1999/xlink" 
	 viewBox="0 0 512 512" xml:space="preserve">
<path style="fill:#DBDDDD;" d="M503.853,361.759c0,12.259-9.939,22.196-22.195,22.196H30.342c-12.258,0-22.196-9.938-22.196-22.196
	V30.278c0-12.258,9.938-22.196,22.196-22.196h451.316c12.256,0,22.195,9.938,22.195,22.196L503.853,361.759L503.853,361.759z"/>
<path style="fill:#698F92;" d="M438.869,291.298h64.984V30.278c0-12.258-9.939-22.196-22.195-22.196H30.342
	c-12.258,0-22.196,9.938-22.196,22.196v261.02h406.295"/>
<rect x="41.554" y="41.682" style="fill:#53CAF9;" width="428.894" height="217.55"/>
<rect x="73.881" y="107.342" style="fill:#A8E2EF;" width="363.159" height="44.937"/>
<rect x="41.554" y="41.682" style="fill:#F5F5F5;" width="428.894" height="32.917"/>
<rect x="41.554" y="41.682" style="fill:#F2304D;" width="38.794" height="32.917"/>
<path style="fill:#DBDDDD;" d="M304.884,471.589h43.791c8.928,0,16.164,7.237,16.164,16.164s-7.236,16.164-16.164,16.164H163.324
	c-8.927,0-16.164-7.237-16.164-16.164s7.237-16.164,16.164-16.164H279.56"/>
<polyline style="fill:#C8CDCE;" points="334.666,471.589 318.502,383.955 193.497,383.955 177.333,471.589 "/>
<circle style="fill:#EAE9E8;" cx="256.355" cy="336.52" r="17.96"/>
<g style="opacity:0.2;">
	
		<rect x="193.444" y="388.408" transform="matrix(-0.9846 -0.1749 0.1749 -0.9846 326.042 886.0709)" style="fill:#231F20;" width="17.242" height="80.521"/>
</g>
<g style="opacity:0.2;">
	<path style="fill:#231F20;" d="M33.522,361.759V30.278c0-12.258,9.938-22.196,22.197-22.196H30.342
		c-12.258,0-22.196,9.938-22.196,22.196v331.481c0,12.259,9.938,22.196,22.196,22.196h25.377
		C43.461,383.955,33.522,374.018,33.522,361.759z"/>
</g>
<g>
	<path style="fill:#231F20;" d="M481.658,0H30.342C13.648,0,0.064,13.582,0.064,30.278v261.02v70.461
		c0,16.696,13.583,30.278,30.278,30.278h153.446l-13.183,71.47h-7.281c-13.37,0-24.247,10.876-24.247,24.247
		c0,13.37,10.876,24.246,24.247,24.246h185.351c13.369,0,24.247-10.876,24.247-24.246c0-13.37-10.878-24.247-24.247-24.247h-7.28
		l-13.183-71.47h153.447c16.695,0,30.277-13.582,30.277-30.278v-70.461V30.278C511.935,13.582,498.354,0,481.658,0z
		 M324.957,463.507h-20.073c-4.465,0-8.082,3.619-8.082,8.082s3.618,8.082,8.082,8.082h29.738c0.012,0,0.023,0.001,0.035,0.001
		c0.011,0,0.023-0.001,0.033-0.001h13.985c4.457,0,8.082,3.625,8.082,8.082s-3.625,8.082-8.082,8.082H163.324
		c-4.457,0-8.082-3.625-8.082-8.082s3.625-8.082,8.082-8.082h14.153c0.01,0,0.02,0,0.03,0H279.56c4.465,0,8.082-3.619,8.082-8.082
		s-3.618-8.082-8.082-8.082h-92.517l13.183-71.47h111.549L324.957,463.507z M481.658,375.873H318.502H193.497H30.342
		c-7.783,0-14.114-6.331-14.114-14.114V299.38h398.213c4.465,0,8.082-3.619,8.082-8.082c0-4.464-3.618-8.082-8.082-8.082H16.228
		V30.278c0-7.783,6.332-14.114,14.114-14.114h451.316c7.782,0,14.113,6.331,14.113,14.114v252.937h-56.902
		c-4.465,0-8.082,3.619-8.082,8.082c0,4.464,3.618,8.082,8.082,8.082h56.902v62.379C495.77,369.542,489.439,375.873,481.658,375.873
		z"/>
	<path style="fill:#231F20;" d="M256.359,310.479c-14.36,0-26.043,11.682-26.043,26.043s11.683,26.043,26.043,26.043
		c14.359,0,26.042-11.683,26.042-26.043S270.719,310.479,256.359,310.479z M256.359,346.401c-5.446,0-9.879-4.431-9.879-9.879
		c0-5.447,4.431-9.879,9.879-9.879c5.446,0,9.877,4.431,9.877,9.879C266.237,341.968,261.806,346.401,256.359,346.401z"/>
	<path style="fill:#231F20;" d="M478.529,259.233V74.601V41.682c0-4.464-3.618-8.082-8.082-8.082H80.348H41.554
		c-4.464,0-8.082,3.619-8.082,8.082v32.917v184.633c0,4.464,3.619,8.082,8.082,8.082h428.893
		C474.911,267.315,478.529,263.696,478.529,259.233z M462.364,66.518H88.43V49.765h373.934V66.518z M49.636,49.765h22.63v16.753
		h-22.63C49.636,66.517,49.636,49.765,49.636,49.765z M49.636,251.151V82.683h30.712h382.016v168.468H49.636z"/>
	<path style="fill:#231F20;" d="M437.04,99.264H73.882c-4.464,0-8.082,3.619-8.082,8.082v44.937c0,4.464,3.619,8.082,8.082,8.082
		H437.04c4.465,0,8.082-3.619,8.082-8.082v-44.937C445.122,102.883,441.505,99.264,437.04,99.264z M428.958,144.201H81.965v-28.773
		h346.993V144.201z"/>
	<path style="fill:#231F20;" d="M238.01,178.024H73.882c-4.464,0-8.082,3.619-8.082,8.082c0,4.464,3.619,8.082,8.082,8.082h164.128
		c4.464,0,8.082-3.619,8.082-8.082C246.093,181.643,242.473,178.024,238.01,178.024z"/>
	<path style="fill:#231F20;" d="M238.01,212.971H73.882c-4.464,0-8.082,3.619-8.082,8.082c0,4.465,3.619,8.082,8.082,8.082h164.128
		c4.464,0,8.082-3.618,8.082-8.082C246.092,216.589,242.473,212.971,238.01,212.971z"/>
	<path style="fill:#231F20;" d="M437.04,178.024H272.913c-4.464,0-8.082,3.619-8.082,8.082c0,4.464,3.619,8.082,8.082,8.082H437.04
		c4.465,0,8.082-3.619,8.082-8.082C445.122,181.643,441.505,178.024,437.04,178.024z"/>
	<path style="fill:#231F20;" d="M437.04,212.971H272.913c-4.464,0-8.082,3.619-8.082,8.082c0,4.465,3.619,8.082,8.082,8.082H437.04
		c4.465,0,8.082-3.618,8.082-8.082C445.122,216.589,441.505,212.971,437.04,212.971z"/>
</g>
<g style="opacity:0.2;">
	<rect x="41.554" y="41.682" style="fill:#231F20;" width="25.212" height="217.55"/>
</g>
</svg>